<svg width="20" height="22" viewBox="0 0 20 22" fill="none" xmlns="http://www.w3.org/2000/svg">
<path d="M18.2224 0.432695C18.4759 0.432073 18.7202 0.527773 18.9058 0.700426C19.0915 0.873079 19.2046 1.10979 19.2224 1.36269L19.9824 12.1327C19.9919 12.2641 19.9754 12.3961 19.9337 12.521C19.8921 12.646 19.8262 12.7616 19.7397 12.861C19.6533 12.9604 19.5481 13.0418 19.4302 13.1004C19.3122 13.1591 19.1838 13.1938 19.0524 13.2027C18.7887 13.2192 18.5292 13.1306 18.3305 12.9563C18.1319 12.7821 18.0104 12.5363 17.9924 12.2727L17.2324 1.5027C17.2159 1.239 17.3045 0.979484 17.4787 0.78087C17.653 0.582256 17.8988 0.460672 18.1624 0.44269L18.2224 0.432695ZM2.46237 2.6527L0.77238 6.0427C0.0293286 7.534 -0.185729 9.23329 0.162379 10.8627C0.306733 11.5348 0.677512 12.1369 1.21269 12.5683C1.74786 12.9997 2.41497 13.2343 3.10238 13.2327L7.28237 13.2327L6.90237 14.3327C6.48306 15.2957 6.30838 16.3474 6.39387 17.3942C6.47936 18.4411 6.82238 19.4505 7.39237 20.3327L7.91238 21.0427C8.10824 21.3116 8.3681 21.5275 8.66844 21.6707C8.96877 21.8139 9.3001 21.8799 9.63238 21.8627C9.96424 21.8438 10.2861 21.7424 10.569 21.5678C10.8518 21.3932 11.0867 21.1509 11.2524 20.8627C11.2999 20.7693 11.34 20.6724 11.3724 20.5727C12.1885 17.6748 13.7384 15.0365 15.8724 12.9127C15.9739 12.8111 16.0523 12.6889 16.1024 12.5543C16.1524 12.4197 16.1729 12.2759 16.1624 12.1327L15.5424 3.22269C15.4891 2.46399 15.1497 1.75383 14.5928 1.23587C14.0358 0.717914 13.3029 0.430829 12.5424 0.432695L6.04237 0.432694C5.3003 0.431231 4.57246 0.636227 3.94023 1.02475C3.30799 1.41327 2.7963 1.97 2.46237 2.63269L2.46237 2.6527Z" fill="#E847F6"/>
</svg>
