<svg width="15" height="16" viewBox="0 0 15 16" fill="none" xmlns="http://www.w3.org/2000/svg">
<path d="M1.24738 15.4468C1.06979 15.4472 0.898658 15.3802 0.768607 15.2592C0.638557 15.1383 0.559292 14.9725 0.546861 14.7953L0.0144666 7.25063C0.00779703 7.15859 0.0193754 7.06614 0.0485436 6.97859C0.0777118 6.89104 0.123897 6.81011 0.184435 6.74046C0.244973 6.67081 0.318672 6.61381 0.401307 6.57273C0.483941 6.53164 0.573875 6.50731 0.665949 6.50109C0.850682 6.48955 1.03248 6.55158 1.17161 6.67365C1.31074 6.79572 1.39591 6.96791 1.4085 7.15257L1.94091 14.6972C1.95244 14.8819 1.89039 15.0637 1.76832 15.2029C1.64625 15.342 1.47408 15.4272 1.28941 15.4398L1.24738 15.4468ZM12.2876 13.8916L13.4715 11.5168C13.992 10.4721 14.1427 9.28174 13.8988 8.14031C13.7977 7.6695 13.538 7.2477 13.1631 6.94548C12.7882 6.64326 12.3208 6.47897 11.8393 6.48007H8.91112L9.17732 5.70949C9.47106 5.0349 9.59342 4.29813 9.53354 3.5648C9.47365 2.83147 9.23336 2.12434 8.83406 1.50635L8.46978 1.00898C8.33258 0.820565 8.15054 0.669342 7.94015 0.569038C7.72975 0.468734 7.49765 0.422514 7.26488 0.434547C7.03241 0.44781 6.80691 0.518793 6.60876 0.641104C6.41062 0.763415 6.24609 0.933196 6.13004 1.13507C6.09674 1.20048 6.06863 1.26839 6.04598 1.33821C5.47426 3.36826 4.38849 5.21649 2.89362 6.70422C2.82251 6.77537 2.76756 6.861 2.7325 6.95529C2.69745 7.04958 2.68311 7.15031 2.69046 7.25063L3.12479 13.4923C3.16209 14.0238 3.39986 14.5213 3.79001 14.8841C4.18016 15.247 4.69357 15.4481 5.22637 15.4468H9.77977C10.2996 15.4478 10.8095 15.3042 11.2524 15.032C11.6953 14.7599 12.0537 14.3699 12.2876 13.9056V13.8916Z" fill="#E847F6"/>
</svg>
