<svg width="20" height="22" fill="none" xmlns="http://www.w3.org/2000/svg"><path d="M18.238 0a1 1 0 0 1 1 .93l.76 10.77a.999.999 0 0 1-1.652.824 1 1 0 0 1-.338-.684l-.76-10.77a1.001 1.001 0 0 1 .93-1.07h.06ZM2.478 2.22.787 5.6a7.37 7.37 0 0 0-.61 4.82 3 3 0 0 0 2.94 2.38h4.18l-.38 1.1a6.35 6.35 0 0 0 .49 6l.52.72a2.09 2.09 0 0 0 1.72.82 2.001 2.001 0 0 0 1.62-1c.045-.094.085-.19.12-.29a17.5 17.5 0 0 1 4.5-7.66.998.998 0 0 0 .29-.78l-.62-8.91a3 3 0 0 0-3-2.79h-6.5a4 4 0 0 0-3.58 2.21Zm7 17.17-.5-.69a4.51 4.51 0 0 1-.21-4.14l.85-2.43a1 1 0 0 0-.94-1.33h-5.6a1 1 0 0 1-1-.79 5.43 5.43 0 0 1 .45-3.52l1.69-3.38A2 2 0 0 1 6.007 2h6.5a1 1 0 0 1 1 .93l.6 8.46a19.64 19.64 0 0 0-4.59 8h-.04Z" fill="#000" fill-opacity=".4"/></svg>