<svg width="20" height="22" fill="none" xmlns="http://www.w3.org/2000/svg"><path d="M1.775 21.44a1 1 0 0 1-1-.93L.015 9.74a1 1 0 0 1 .93-1.07 1 1 0 0 1 1.06.93l.76 10.77a1 1 0 0 1-.93 1.07h-.06Zm15.76-2.22 1.69-3.38a7.37 7.37 0 0 0 .61-4.82 3 3 0 0 0-2.94-2.38h-4.18l.38-1.1a6.35 6.35 0 0 0-.49-6l-.52-.72a2.089 2.089 0 0 0-1.72-.82 2 2 0 0 0-1.62 1 2.52 2.52 0 0 0-.12.29 17.5 17.5 0 0 1-4.5 7.66 1 1 0 0 0-.29.78l.62 8.91a3 3 0 0 0 3 2.79h6.5a4 4 0 0 0 3.58-2.21Zm-7-17.17.5.69a4.51 4.51 0 0 1 .21 4.14l-.85 2.43a1.001 1.001 0 0 0 .94 1.33h5.6a1 1 0 0 1 1 .79 5.43 5.43 0 0 1-.45 3.52l-1.69 3.38a2 2 0 0 1-1.79 1.11h-6.5a1 1 0 0 1-1-.93l-.6-8.46a19.639 19.639 0 0 0 4.59-8h.04Z" fill="#000" fill-opacity=".4"/></svg>