<svg width="14" height="15" viewBox="0 0 14 15" fill="none" xmlns="http://www.w3.org/2000/svg">
<path d="M13.2222 14.7812C9.71547 14.7812 6.35235 13.3882 3.8727 10.9086C1.39305 8.4289 0 5.06578 0 1.55903C0 1.35275 0.0819436 1.15492 0.227805 1.00906C0.373667 0.863194 0.571498 0.78125 0.777778 0.78125C0.984057 0.78125 1.18189 0.863194 1.32775 1.00906C1.47361 1.15492 1.55556 1.35275 1.55556 1.55903C1.55556 4.65322 2.78472 7.62068 4.97265 9.80861C7.16057 11.9965 10.128 13.2257 13.2222 13.2257C13.4285 13.2257 13.6263 13.3076 13.7722 13.4535C13.9181 13.5994 14 13.7972 14 14.0035C14 14.2098 13.9181 14.4076 13.7722 14.5534C13.6263 14.6993 13.4285 14.7812 13.2222 14.7812Z" fill="black" fill-opacity="0.2"/>
</svg>
